<svg width="512" height="512" viewBox="0 0 24 24" fill="none" xmlns="http://www.w3.org/2000/svg">
  <path d="M12 18.5C15.5899 18.5 18.5 15.5899 18.5 12C18.5 8.41015 15.5899 5.5 12 5.5C8.41015 5.5 5.5 8.41015 5.5 12C5.5 15.5899 8.41015 18.5 12 18.5Z" fill="#F87171"/>
  <path d="M12 22C10.6832 22 9.38731 21.7213 8.17974 21.1801C6.97218 20.6388 5.88351 19.8482 4.97919 18.8585C4.07487 17.8689 3.37633 16.6989 2.92676 15.4267C2.47719 14.1544 2.28572 12.8022 2.36219 11.4536C2.43866 10.105 2.78159 8.78617 3.36886 7.57621C3.95613 6.36626 4.77572 5.29019 5.77909 4.40868C6.78246 3.52717 7.94985 2.85672 9.21927 2.43523C10.4887 2.01374 11.8359 1.8501 13.1758 1.9537C14.5157 2.05729 15.8219 2.42578 17.0212 3.03839C18.2205 3.65099 19.2879 4.49513 20.1636 5.52218C21.0393 6.54922 21.7067 7.73816 22.1271 9.01865C22.5474 10.2991 22.7125 11.6472 22.6125 12.9877C22.5125 14.3281 22.1491 15.6347 21.5445 16.8343C20.9399 18.0339 20.1048 19.102 19.1002 19.9855C18.0955 20.8689 16.9261 21.5405 15.6551 21.962C14.3841 22.3835 13.0357 22.5463 11.6951 22.4406C11.7968 22.4468 11.8985 22.45 12 22.45" stroke="#F87171" stroke-width="2"/>
</svg>